<svg id="Capa_1" enable-background="new 0 0 512 512" height="512" viewBox="0 0 512 512" width="512" xmlns="http://www.w3.org/2000/svg"><g><g><path d="m276.294 205.97 39.26-.18c5.55-.02 10.57 2.16 14.26 5.71l110.91-110.91-29.53-29.52z" fill="#868eaf"/></g><g><path d="m413.556 35.015h84.679v41.752h-84.679z" fill="#f9f6f4" transform="matrix(.707 -.707 .707 .707 94.007 338.737)"/></g><g><path d="m69.284 310.82 76.91 76.91 118.39-14.65c14.33-2.18 25.12-14.2 25.74-28.68l3-69.62c.424-10.736 9.965-19.269 20.67-18.57 11.52.75 21.37-8.16 21.76-19.71l.31-9.61c.39-11.58-8.92-21.15-20.51-21.1l-39.26.18 10.69-10.69c8.737-8.737 8.736-23.333 0-32.07-8.85-8.85-23.21-8.85-32.06 0l-43.05 43.05-7.15.04c-13.52.07-26.52 5.15-36.49 14.28z" fill="#ffdad5"/></g><g><path d="m69.285 310.822 101.375 101.375-40.935 40.936-103.24-103.272z" fill="#f9f6f4"/></g><g><path d="m129.725 453.133-30.892 48.867h-87.429v-138.389l15.081-13.75z" fill="#a0c8ff"/></g><g><path d="m507.668 33.644-29.524-29.524c-3.904-3.903-10.234-3.904-14.143 0l-162.782 162.782c-1.622-3.979-4.035-7.633-7.165-10.762-12.59-12.592-33.611-12.593-46.202-.001l-40.145 40.145-3.037.017c-16.039.084-31.378 6.087-43.176 16.892l-4.891 4.46c-4.081 3.722-4.372 10.046-.65 14.127 3.722 4.082 10.047 4.372 14.127.65l4.906-4.474c8.145-7.459 18.724-11.598 29.792-11.655l110.817-.51c5.83 0 10.669 4.913 10.472 10.777l-.309 9.596c-.198 5.833-5.3 10.421-11.114 10.068-16.205-1.071-30.674 11.874-31.312 28.118l-3 69.622c-.412 9.639-7.608 17.694-17.131 19.203l-113.389 14.032-66.054-66.054 21.368-19.487c4.081-3.722 4.372-10.047.65-14.127s-10.046-4.373-14.127-.65l-86.983 79.333c-2.078 1.895-3.262 4.577-3.262 7.39v138.388c0 5.522 4.477 10 10 10h87.429c3.43 0 6.62-1.758 8.453-4.656l30.297-47.926 40.149-40.149c3.905-3.905 3.905-10.237 0-14.143l-9.982-9.982 98.063-12.14c.092-.011.184-.023.275-.038 19.01-2.893 33.404-18.933 34.228-38.136l3.001-69.657c.205-5.204 4.858-9.315 10.028-8.984 16.949 1.122 31.832-12.416 32.404-29.366l.309-9.596c.174-5.171-.933-10.167-3.184-14.645l164.794-164.796c1.875-1.876 2.929-4.419 2.929-7.071s-1.054-5.195-2.929-7.071zm-414.344 458.356h-71.92v-123.974l4.761-4.342 90.835 90.864zm36.402-53.011-88.767-88.795 28.008-25.547 70.155 70.155s.001 0 .001.001l17.394 17.395zm132.269-268.709c4.882-4.882 13.037-4.881 17.918.002 4.886 4.884 4.883 13.043-.001 17.927l-7.761 7.761h-35.846zm53.513 25.51-14.961.068 110.647-110.647 15.383 15.382-98.042 98.043c-4.071-1.904-8.539-2.846-13.027-2.846zm125.213-109.342-15.383-15.38 45.735-45.735 15.381 15.382z"/><path d="m485.229 154.762c-3.906-3.904-10.236-3.904-14.143 0l-6.487 6.487-6.487-6.487c-3.906-3.904-10.236-3.904-14.143 0-3.905 3.905-3.905 10.237 0 14.143l6.487 6.487-6.487 6.487c-3.905 3.905-3.905 10.237 0 14.143 1.953 1.952 4.512 2.929 7.071 2.929s5.118-.977 7.071-2.929l6.487-6.487 6.487 6.487c1.953 1.952 4.512 2.929 7.071 2.929s5.118-.977 7.071-2.929c3.905-3.905 3.905-10.237 0-14.143l-6.487-6.487 6.487-6.487c3.908-3.906 3.908-10.238.002-14.143z"/><path d="m236.851 88.333-6.487 6.487c-3.905 3.905-3.905 10.237 0 14.143 1.953 1.952 4.512 2.929 7.071 2.929s5.119-.977 7.071-2.929l6.487-6.487 6.487 6.487c1.953 1.952 4.512 2.929 7.071 2.929s5.118-.977 7.071-2.929c3.905-3.905 3.905-10.237 0-14.143l-6.488-6.488 6.488-6.488c3.905-3.905 3.905-10.237 0-14.143-3.906-3.904-10.236-3.904-14.143 0l-6.488 6.488-6.487-6.487c-3.905-3.904-10.237-3.904-14.143 0-3.905 3.905-3.905 10.237 0 14.143z"/><path d="m344.864 64.987c17.917 0 32.494-14.576 32.494-32.493s-14.577-32.494-32.494-32.494-32.494 14.577-32.494 32.494 14.577 32.493 32.494 32.493zm0-44.987c6.89 0 12.494 5.604 12.494 12.494 0 6.889-5.604 12.493-12.494 12.493s-12.494-5.604-12.494-12.493c0-6.89 5.604-12.494 12.494-12.494z"/><path d="m120.49 259.52c2.065 5.041 8.04 7.494 13.06 5.41 5.035-2.09 7.497-8.019 5.41-13.06-2.084-5.033-8.032-7.485-13.06-5.4-5.021 2.081-7.509 8.017-5.41 13.05z"/></g></g></svg>